<svg width="30" height="35" viewBox="0 0 30 35" fill="none" xmlns="http://www.w3.org/2000/svg">
<path fill-rule="evenodd" clip-rule="evenodd" d="M1.90039 6.04224H27.4004V30.536H1.90039V6.04224Z" fill="white"/>
<path fill-rule="evenodd" clip-rule="evenodd" d="M27.2727 0H2.72727C1.21364 0 0 1.41591 0 3.18182V31.8182C0 33.5682 1.21364 35 2.72727 35H27.2727C28.7728 35 30 33.5682 30 31.8182V3.18182C30 1.41591 28.7728 0 27.2727 0ZM15 28.175C14.1136 28.175 13.2545 28.0636 12.4227 27.8727C10.9637 29.0022 9.0273 29.7818 7.21365 30.1636C8.05913 29.1932 8.85 27.7454 8.95913 26.3136C6.02729 24.3727 4.09092 21.0795 4.09092 17.3091C4.09092 11.2954 8.9727 6.42725 15 6.42725C21.0273 6.42725 25.9091 11.2954 25.9091 17.3091C25.9091 23.3068 21.0273 28.175 15 28.175Z" fill="#312F2F"/>
</svg>
