<svg width="30" height="36" viewBox="0 0 30 36" fill="none" xmlns="http://www.w3.org/2000/svg">
<path fill-rule="evenodd" clip-rule="evenodd" d="M5.96157 13.9594H23.1044V29.0723H5.96157V13.9594Z" fill="white"/>
<path fill-rule="evenodd" clip-rule="evenodd" d="M18.869 1.27845L27.61 8.73123L17.0128 11.6231L18.869 1.27845Z" fill="white"/>
<path fill-rule="evenodd" clip-rule="evenodd" d="M29.3207 8.95332L19.4634 0.676925C19.3027 0.54198 19.085 0.466078 18.8574 0.466078H3.42189C1.77123 0.466078 0.428564 1.59059 0.428564 2.97093V32.0924C0.428564 33.7173 1.80472 35.0099 3.75 35.0099H25.8418C27.7871 35.0099 29.5718 33.7173 29.5718 32.0924V9.46217C29.5718 9.271 29.4814 9.08831 29.3207 8.95332ZM15.8572 26.374H8.14286V24.9346H15.8572V26.374ZM21.8573 23.4954H8.14286V22.056H21.8573V23.4954ZM21.8573 20.6167H8.14286V19.1773H21.8573V20.6167ZM21.8573 17.7381H8.14286V16.2987H21.8573V17.7381ZM20.7154 9.10226C19.9252 9.10226 19.2857 8.56532 19.2857 7.90188V2.56322L27.0737 9.10226H20.7154Z" fill="#312F2F"/>
</svg>
