<svg width="35" height="35" viewBox="0 0 35 35" fill="none" xmlns="http://www.w3.org/2000/svg">
<mask id="mask0_21_72" style="mask-type:luminance" maskUnits="userSpaceOnUse" x="0" y="0" width="35" height="35">
<path d="M0 0H35V35H0V0Z" fill="white"/>
</mask>
<g mask="url(#mask0_21_72)">
<path fill-rule="evenodd" clip-rule="evenodd" d="M19.0181 1.18563L34.035 12.9056C34.0771 12.9384 34.1177 12.9726 34.1568 13.008C34.1958 13.0435 34.2333 13.0802 34.2691 13.118C34.305 13.1559 34.3392 13.1949 34.3717 13.235C34.4041 13.2751 34.4348 13.3162 34.4637 13.3582C34.4926 13.4003 34.5196 13.4433 34.5447 13.4871C34.5699 13.5309 34.5931 13.5755 34.6143 13.6209C34.6356 13.6662 34.6548 13.7122 34.672 13.7587C34.6893 13.8053 34.7045 13.8524 34.7176 13.9C34.7307 13.9475 34.7417 13.9955 34.7507 14.0438C34.7596 14.092 34.7665 14.1406 34.7712 14.1893C34.7759 14.238 34.7784 14.2868 34.7789 14.3357C34.7793 14.3846 34.7776 14.4334 34.7738 14.4822C34.77 14.531 34.7641 14.5796 34.756 14.628C34.748 14.6763 34.7378 14.7244 34.7256 14.7722C34.7133 14.8199 34.699 14.8672 34.6827 14.914C34.6663 14.9608 34.6479 15.007 34.6275 15.0527C34.6071 15.0983 34.5847 15.1432 34.5603 15.1873C34.536 15.2315 34.5098 15.2748 34.4817 15.3173C34.4536 15.3598 34.4236 15.4013 34.3919 15.4418C34.3602 15.4823 34.3268 15.5218 34.2915 15.5602C34.2564 15.5985 34.2196 15.6357 34.1812 15.6717C34.1428 15.7077 34.1028 15.7423 34.0614 15.7757C34.0199 15.8091 33.9771 15.8411 33.9329 15.8717C33.8886 15.9023 33.8431 15.9314 33.7963 15.9591C33.7496 15.9868 33.7016 16.0129 33.6525 16.0375C33.6035 16.062 33.5534 16.0849 33.5023 16.1063C33.4513 16.1276 33.3994 16.1472 33.3466 16.1652C33.2938 16.1831 33.2403 16.1993 33.1862 16.2138C33.132 16.2283 33.0772 16.241 33.0219 16.2519C32.9666 16.2628 32.9109 16.272 32.8548 16.2793C32.7987 16.2866 32.7424 16.2921 32.6858 16.2958C32.6292 16.2995 32.5726 16.3013 32.5158 16.3013H2.48189C2.42515 16.3013 2.3685 16.2995 2.31192 16.2958C2.25534 16.2921 2.199 16.2866 2.1429 16.2793C2.0868 16.272 2.03111 16.2628 1.97581 16.2519C1.9205 16.241 1.86575 16.2283 1.81156 16.2138C1.75737 16.1993 1.70388 16.1831 1.65111 16.1652C1.59833 16.1472 1.54641 16.1276 1.49535 16.1063C1.44428 16.0849 1.39422 16.062 1.34516 16.0375C1.2961 16.0129 1.24818 15.9868 1.2014 15.9591C1.15461 15.9314 1.1091 15.9023 1.06486 15.8717C1.02062 15.8411 0.977776 15.8091 0.936331 15.7757C0.894882 15.7423 0.854949 15.7077 0.816534 15.6717C0.778113 15.6357 0.741315 15.5985 0.706139 15.5602C0.670963 15.5218 0.63751 15.4823 0.60578 15.4418C0.574045 15.4013 0.544124 15.3598 0.516017 15.3173C0.487909 15.2748 0.461691 15.2315 0.437362 15.1873C0.413032 15.1432 0.390663 15.0983 0.370252 15.0527C0.349842 15.007 0.331449 14.9608 0.315074 14.914C0.298698 14.8672 0.284386 14.8199 0.272135 14.7722C0.259885 14.7244 0.24973 14.6763 0.241671 14.628C0.233616 14.5796 0.227682 14.531 0.223869 14.4822C0.220056 14.4334 0.218373 14.3846 0.218821 14.3357C0.219273 14.2868 0.221854 14.238 0.226563 14.1893C0.231272 14.1406 0.238096 14.092 0.247036 14.0438C0.255976 13.9955 0.267009 13.9475 0.280134 13.9C0.29326 13.8524 0.308441 13.8053 0.325676 13.7587C0.342907 13.7122 0.362145 13.6662 0.383391 13.6209C0.404636 13.5755 0.427828 13.5309 0.452967 13.4871C0.478102 13.4433 0.505112 13.4003 0.534 13.3582C0.562882 13.3162 0.59356 13.2751 0.626035 13.235C0.658504 13.1949 0.692676 13.1559 0.728551 13.118C0.764426 13.0802 0.801901 13.0435 0.840976 13.008C0.880051 12.9726 0.920617 12.9384 0.962675 12.9056L15.9797 1.18563C16.0311 1.14545 16.0846 1.1074 16.1402 1.07148C16.1957 1.03555 16.253 1.0019 16.3121 0.970512C16.3713 0.939134 16.432 0.910162 16.4942 0.883595C16.5565 0.857029 16.62 0.832982 16.6848 0.811453C16.7496 0.789928 16.8154 0.771012 16.8822 0.754702C16.949 0.738398 17.0165 0.72477 17.0848 0.713819C17.1531 0.702873 17.2218 0.694651 17.291 0.689154C17.3601 0.683657 17.4294 0.680908 17.4989 0.680908C17.5683 0.680908 17.6376 0.683657 17.7068 0.689154C17.7759 0.694651 17.8446 0.702873 17.9129 0.713819C17.9811 0.72477 18.0487 0.738398 18.1156 0.754702C18.1824 0.771012 18.2482 0.789928 18.313 0.811453C18.3778 0.832982 18.4413 0.857029 18.5035 0.883595C18.5658 0.910162 18.6264 0.939134 18.6855 0.970512C18.7447 1.0019 18.8021 1.03555 18.8576 1.07148C18.9131 1.1074 18.9666 1.14545 19.0181 1.18563Z" fill="#312F2F"/>
<path fill-rule="evenodd" clip-rule="evenodd" d="M4.41159 13.9041H30.0835C30.1576 13.9041 30.2316 13.9072 30.3053 13.9134C30.3791 13.9197 30.4524 13.9291 30.5251 13.9415C30.5978 13.954 30.6696 13.9695 30.7405 13.988C30.8114 14.0066 30.8811 14.0281 30.9496 14.0525C31.0181 14.0769 31.085 14.1042 31.1504 14.1343C31.2157 14.1644 31.2792 14.1972 31.3408 14.2327C31.4025 14.2682 31.4619 14.3062 31.5192 14.3467C31.5765 14.3872 31.6314 14.4301 31.6838 14.4753C31.7362 14.5204 31.7859 14.5676 31.8329 14.617C31.88 14.6664 31.9241 14.7176 31.9653 14.7708C32.0064 14.8239 32.0445 14.8786 32.0795 14.9349C32.1144 14.9913 32.146 15.0489 32.1744 15.1079C32.2028 15.1669 32.2277 15.227 32.2492 15.2881C32.2707 15.3492 32.2887 15.4111 32.3032 15.4738C32.3176 15.5364 32.3285 15.5995 32.3357 15.6631C32.343 15.7266 32.3467 15.7904 32.3467 15.8543V33.0497C32.3467 33.1136 32.343 33.1773 32.3357 33.2408C32.3285 33.3044 32.3176 33.3675 32.3032 33.4301C32.2887 33.4928 32.2707 33.5547 32.2492 33.6158C32.2277 33.6769 32.2028 33.737 32.1744 33.796C32.146 33.855 32.1144 33.9127 32.0795 33.969C32.0445 34.0253 32.0064 34.0801 31.9653 34.1332C31.9241 34.1863 31.88 34.2375 31.8329 34.2869C31.7859 34.3363 31.7362 34.3835 31.6838 34.4287C31.6314 34.4739 31.5765 34.5167 31.5192 34.5572C31.4619 34.5978 31.4025 34.6358 31.3408 34.6713C31.2792 34.7067 31.2157 34.7395 31.1504 34.7697C31.085 34.7997 31.0181 34.827 30.9496 34.8515C30.8811 34.8759 30.8114 34.8974 30.7405 34.9159C30.6696 34.9345 30.5978 34.95 30.5251 34.9624C30.4524 34.9749 30.3791 34.9843 30.3053 34.9905C30.2316 34.9968 30.1576 34.9999 30.0835 34.9999H4.41159C4.33744 34.9999 4.26348 34.9968 4.18973 34.9905C4.11598 34.9843 4.04275 34.9749 3.97006 34.9624C3.89736 34.95 3.82555 34.9345 3.75462 34.9159C3.68369 34.8974 3.61399 34.8759 3.54551 34.8515C3.47703 34.827 3.4101 34.7997 3.34474 34.7697C3.27937 34.7395 3.21587 34.7067 3.15424 34.6713C3.09261 34.6358 3.03315 34.5978 2.97585 34.5572C2.91856 34.5167 2.86371 34.4739 2.8113 34.4287C2.75889 34.3835 2.70917 34.3363 2.66214 34.2869C2.61512 34.2375 2.57102 34.1863 2.52984 34.1332C2.48867 34.0801 2.45061 34.0253 2.41567 33.969C2.38073 33.9127 2.34907 33.855 2.3207 33.796C2.29234 33.737 2.2674 33.6769 2.24588 33.6158C2.22437 33.5547 2.20638 33.4928 2.19192 33.4301C2.17746 33.3675 2.1666 33.3044 2.15933 33.2408C2.15207 33.1773 2.14844 33.1136 2.14844 33.0497V15.8543C2.14844 15.7904 2.15207 15.7266 2.15933 15.6631C2.1666 15.5995 2.17746 15.5364 2.19192 15.4738C2.20638 15.4111 2.22437 15.3492 2.24588 15.2881C2.2674 15.227 2.29234 15.1669 2.3207 15.1079C2.34907 15.0489 2.38073 14.9913 2.41567 14.9349C2.45061 14.8786 2.48867 14.8239 2.52984 14.7708C2.57102 14.7176 2.61512 14.6664 2.66214 14.617C2.70917 14.5676 2.75889 14.5204 2.8113 14.4753C2.86371 14.4301 2.91856 14.3872 2.97585 14.3467C3.03315 14.3062 3.09261 14.2682 3.15424 14.2327C3.21587 14.1972 3.27937 14.1644 3.34474 14.1343C3.4101 14.1042 3.47703 14.0769 3.54551 14.0525C3.61399 14.0281 3.68369 14.0066 3.75462 13.988C3.82555 13.9695 3.89736 13.954 3.97006 13.9415C4.04275 13.9291 4.11598 13.9197 4.18973 13.9134C4.26348 13.9072 4.33744 13.9041 4.41159 13.9041Z" fill="#312F2F"/>
<path fill-rule="evenodd" clip-rule="evenodd" d="M27.06 1.91772H27.0635C27.1376 1.91772 27.2115 1.92085 27.2853 1.92711C27.3591 1.93337 27.4323 1.94273 27.505 1.95519C27.5777 1.96766 27.6495 1.98316 27.7204 2.0017C27.7913 2.02024 27.861 2.04173 27.9295 2.06617C27.998 2.09062 28.065 2.1179 28.1303 2.148C28.1957 2.17811 28.2591 2.21091 28.3208 2.24639C28.3824 2.28188 28.4419 2.31988 28.4992 2.3604C28.5565 2.40092 28.6113 2.44376 28.6638 2.48893C28.7162 2.53409 28.7659 2.58136 28.8129 2.63073C28.8599 2.6801 28.904 2.73134 28.9452 2.78445C28.9864 2.83756 29.0244 2.89228 29.0594 2.94861C29.0943 3.00494 29.126 3.0626 29.1543 3.12162C29.1827 3.18063 29.2076 3.24069 29.2291 3.30181C29.2507 3.36293 29.2687 3.42482 29.2832 3.48746C29.2976 3.5501 29.3084 3.61321 29.3157 3.67678C29.323 3.74034 29.3266 3.80406 29.3266 3.86793V8.59765C29.3266 8.66151 29.323 8.72524 29.3157 8.78884C29.3084 8.85239 29.2976 8.91549 29.2832 8.97814C29.2687 9.04078 29.2507 9.10267 29.2291 9.16379C29.2076 9.22492 29.1827 9.28498 29.1543 9.34399C29.126 9.40299 29.0943 9.46065 29.0594 9.51696C29.0244 9.57332 28.9864 9.62805 28.9452 9.68116C28.904 9.73427 28.8599 9.78549 28.8129 9.83482C28.7659 9.8842 28.7162 9.93147 28.6638 9.97665C28.6113 10.0218 28.5565 10.0647 28.4992 10.1052C28.4419 10.1457 28.3824 10.1837 28.3208 10.2192C28.2591 10.2547 28.1957 10.2875 28.1303 10.3176C28.065 10.3477 27.998 10.3749 27.9295 10.3994C27.861 10.4238 27.7913 10.4454 27.7204 10.4639C27.6495 10.4824 27.5777 10.4979 27.505 10.5104C27.4323 10.5228 27.3591 10.5322 27.2853 10.5385C27.2115 10.5447 27.1376 10.5479 27.0635 10.5479H27.06C26.9859 10.5479 26.912 10.5447 26.8382 10.5385C26.7644 10.5322 26.6912 10.5228 26.6185 10.5104C26.5458 10.4979 26.474 10.4824 26.403 10.4639C26.3321 10.4454 26.2624 10.4238 26.1939 10.3994C26.1255 10.3749 26.0585 10.3477 25.9932 10.3176C25.9278 10.2875 25.8643 10.2547 25.8026 10.2192C25.741 10.1837 25.6816 10.1457 25.6243 10.1052C25.567 10.0647 25.5122 10.0218 25.4597 9.97665C25.4073 9.93147 25.3576 9.8842 25.3106 9.83482C25.2636 9.78549 25.2195 9.73427 25.1783 9.68116C25.1371 9.62805 25.0991 9.57332 25.0641 9.51696C25.0292 9.46065 24.9975 9.40299 24.9692 9.34399C24.9408 9.28498 24.9158 9.22492 24.8943 9.16379C24.8728 9.10267 24.8548 9.04078 24.8403 8.97814C24.8259 8.91549 24.815 8.85239 24.8077 8.78884C24.8005 8.72524 24.7969 8.66151 24.7969 8.59765V3.86793C24.7969 3.80406 24.8005 3.74034 24.8077 3.67678C24.815 3.61321 24.8259 3.5501 24.8403 3.48746C24.8548 3.42482 24.8728 3.36293 24.8943 3.30181C24.9158 3.24069 24.9408 3.18063 24.9692 3.12162C24.9975 3.0626 25.0292 3.00494 25.0641 2.94861C25.0991 2.89228 25.1371 2.83756 25.1783 2.78445C25.2195 2.73134 25.2636 2.6801 25.3106 2.63073C25.3576 2.58136 25.4073 2.53409 25.4597 2.48893C25.5122 2.44376 25.567 2.40092 25.6243 2.3604C25.6816 2.31988 25.741 2.28188 25.8026 2.24639C25.8643 2.21091 25.9278 2.17811 25.9932 2.148C26.0585 2.1179 26.1255 2.09062 26.1939 2.06617C26.2624 2.04173 26.3321 2.02024 26.403 2.0017C26.474 1.98316 26.5458 1.96766 26.6185 1.95519C26.6912 1.94273 26.7644 1.93337 26.8382 1.92711C26.912 1.92085 26.9859 1.91772 27.06 1.91772Z" fill="#312F2F"/>
<path fill-rule="evenodd" clip-rule="evenodd" d="M14.9799 19.178H19.5132C19.5873 19.178 19.6612 19.1811 19.7349 19.1874C19.8087 19.1937 19.8819 19.203 19.9546 19.2154C20.0273 19.2279 20.0991 19.2434 20.1701 19.262C20.241 19.2805 20.3107 19.302 20.3792 19.3264C20.4477 19.3509 20.5146 19.3782 20.58 19.4082C20.6453 19.4384 20.7088 19.4712 20.7704 19.5066C20.8321 19.5421 20.8915 19.5802 20.9488 19.6207C21.0061 19.6612 21.061 19.704 21.1134 19.7492C21.1658 19.7944 21.2156 19.8416 21.2625 19.891C21.3096 19.9404 21.3537 19.9916 21.3948 20.0447C21.436 20.0978 21.4741 20.1526 21.509 20.2089C21.544 20.2652 21.5756 20.3228 21.604 20.3818C21.6324 20.4409 21.6573 20.501 21.6788 20.5621C21.7003 20.6232 21.7183 20.6851 21.7328 20.7477C21.7472 20.8103 21.7581 20.8735 21.7654 20.9371C21.7726 21.0006 21.7763 21.0643 21.7763 21.1282V29.2141C21.7763 29.2779 21.7726 29.3417 21.7654 29.4053C21.7581 29.4688 21.7472 29.5319 21.7328 29.5946C21.7183 29.6572 21.7003 29.7191 21.6788 29.7802C21.6573 29.8413 21.6324 29.9014 21.604 29.9604C21.5756 30.0194 21.544 30.0771 21.509 30.1334C21.4741 30.1897 21.436 30.2445 21.3948 30.2976C21.3537 30.3507 21.3096 30.4019 21.2625 30.4513C21.2156 30.5006 21.1658 30.5479 21.1134 30.5931C21.061 30.6382 21.0061 30.6811 20.9488 30.7216C20.8915 30.7621 20.8321 30.8001 20.7704 30.8356C20.7088 30.8711 20.6453 30.9039 20.58 30.934C20.5146 30.9641 20.4477 30.9914 20.3792 31.0158C20.3107 31.0403 20.241 31.0618 20.1701 31.0803C20.0991 31.0988 20.0273 31.1143 19.9546 31.1268C19.8819 31.1393 19.8087 31.1486 19.7349 31.1549C19.6612 31.1612 19.5873 31.1643 19.5132 31.1643H14.9799C14.9058 31.1643 14.8319 31.1612 14.7581 31.1549C14.6843 31.1486 14.6111 31.1393 14.5384 31.1268C14.4657 31.1143 14.3939 31.0988 14.323 31.0803C14.2521 31.0618 14.1824 31.0403 14.1138 31.0158C14.0454 30.9914 13.9785 30.9641 13.9131 30.934C13.8478 30.9039 13.7842 30.8711 13.7226 30.8356C13.6609 30.8001 13.6015 30.7621 13.5442 30.7216C13.4869 30.6811 13.4321 30.6382 13.3797 30.5931C13.3272 30.5479 13.2775 30.5006 13.2305 30.4513C13.1835 30.4019 13.1394 30.3507 13.0982 30.2976C13.057 30.2445 13.019 30.1897 12.984 30.1334C12.9491 30.0771 12.9175 30.0194 12.8891 29.9604C12.8607 29.9014 12.8358 29.8413 12.8142 29.7802C12.7927 29.7191 12.7748 29.6572 12.7603 29.5946C12.7458 29.5319 12.735 29.4688 12.7277 29.4053C12.7204 29.3417 12.7168 29.2779 12.7168 29.2141V21.1282C12.7168 21.0643 12.7204 21.0006 12.7277 20.9371C12.735 20.8735 12.7458 20.8103 12.7603 20.7477C12.7748 20.6851 12.7927 20.6232 12.8142 20.5621C12.8358 20.501 12.8607 20.4409 12.8891 20.3819C12.9175 20.3229 12.9491 20.2652 12.984 20.2089C13.019 20.1526 13.057 20.0978 13.0982 20.0447C13.1394 19.9916 13.1835 19.9404 13.2305 19.891C13.2775 19.8416 13.3272 19.7944 13.3797 19.7492C13.4321 19.704 13.4869 19.6612 13.5442 19.6207C13.6016 19.5802 13.661 19.5421 13.7226 19.5066C13.7843 19.4712 13.8478 19.4384 13.9131 19.4082C13.9785 19.3782 14.0454 19.3509 14.1138 19.3264C14.1824 19.302 14.2521 19.2805 14.323 19.262C14.3939 19.2434 14.4657 19.2279 14.5384 19.2154C14.6111 19.203 14.6843 19.1937 14.7581 19.1874C14.8319 19.1811 14.9058 19.178 14.9799 19.178Z" fill="white"/>
</g>
</svg>
