<svg width="30" height="35" viewBox="0 0 30 35" fill="none" xmlns="http://www.w3.org/2000/svg">
<path fill-rule="evenodd" clip-rule="evenodd" d="M2.24925 1.69356H27.7507C27.8244 1.69356 27.8979 1.69662 27.9712 1.70275C28.0445 1.70888 28.1173 1.71804 28.1896 1.73024C28.2618 1.74245 28.3332 1.75763 28.4037 1.77578C28.4742 1.79393 28.5435 1.81498 28.6115 1.83891C28.6796 1.86284 28.7461 1.88955 28.811 1.91904C28.876 1.94852 28.9391 1.98063 29.0004 2.01538C29.0616 2.05012 29.1207 2.08733 29.1776 2.12701C29.2346 2.16669 29.2891 2.20863 29.3412 2.25285C29.3933 2.29708 29.4427 2.34336 29.4895 2.39171C29.5362 2.44005 29.58 2.49022 29.6209 2.54222C29.6618 2.59422 29.6997 2.6478 29.7344 2.70296C29.7691 2.75812 29.8006 2.81458 29.8288 2.87237C29.857 2.93015 29.8818 2.98896 29.9032 3.04881C29.9245 3.10866 29.9424 3.16925 29.9568 3.23059C29.9712 3.29193 29.9819 3.35372 29.9892 3.41596C29.9964 3.4782 30 3.54059 30 3.60313V33.0904C30 33.153 29.9964 33.2154 29.9892 33.2776C29.9819 33.3399 29.9712 33.4016 29.9568 33.463C29.9424 33.5243 29.9245 33.5849 29.9032 33.6448C29.8818 33.7046 29.857 33.7634 29.8288 33.8212C29.8006 33.879 29.7691 33.9354 29.7344 33.9906C29.6997 34.0458 29.6618 34.0994 29.6209 34.1514C29.58 34.2034 29.5362 34.2535 29.4895 34.3019C29.4427 34.3502 29.3933 34.3965 29.3412 34.4407C29.2891 34.4849 29.2346 34.5269 29.1776 34.5666C29.1207 34.6063 29.0616 34.6435 29.0004 34.6782C28.9391 34.713 28.876 34.7451 28.811 34.7745C28.7461 34.804 28.6796 34.8307 28.6115 34.8546C28.5435 34.8786 28.4742 34.8996 28.4037 34.9178C28.3332 34.936 28.2618 34.9511 28.1896 34.9633C28.1173 34.9755 28.0445 34.9847 27.9712 34.9908C27.8979 34.9969 27.8244 35 27.7507 35H2.24925C2.17558 35 2.1021 34.9969 2.02879 34.9908C1.95547 34.9847 1.88269 34.9755 1.81044 34.9633C1.73819 34.9511 1.66682 34.936 1.59633 34.9178C1.52583 34.8996 1.45656 34.8786 1.3885 34.8546C1.32044 34.8307 1.25393 34.804 1.18896 34.7745C1.124 34.7451 1.06088 34.713 0.99963 34.6782C0.93838 34.6434 0.879282 34.6062 0.822337 34.5666C0.765395 34.5269 0.71088 34.4849 0.65879 34.4407C0.606701 34.3965 0.557289 34.3502 0.510556 34.3019C0.463823 34.2535 0.419994 34.2034 0.379067 34.1514C0.338141 34.0994 0.300314 34.0458 0.265588 33.9906C0.230863 33.9354 0.199405 33.879 0.171214 33.8212C0.143023 33.7634 0.118236 33.7046 0.096852 33.6448C0.0754679 33.5849 0.0575901 33.5243 0.0432186 33.463C0.0288472 33.4016 0.0180511 33.3399 0.0108306 33.2776C0.00361011 33.2154 0 33.153 0 33.0904V3.60313C0 3.54059 0.00361011 3.4782 0.0108306 3.41596C0.0180511 3.35372 0.0288472 3.29193 0.0432186 3.23059C0.0575901 3.16925 0.0754679 3.10866 0.096852 3.04881C0.118236 2.98896 0.143023 2.93015 0.171214 2.87237C0.199405 2.81458 0.230863 2.75812 0.265588 2.70296C0.300314 2.6478 0.338141 2.59422 0.379067 2.54222C0.419994 2.49022 0.463823 2.44005 0.510556 2.39171C0.557289 2.34336 0.606701 2.29708 0.65879 2.25285C0.71088 2.20863 0.765395 2.16669 0.822337 2.12701C0.879282 2.08733 0.93838 2.05012 0.99963 2.01538C1.06088 1.98063 1.124 1.94852 1.18896 1.91904C1.25393 1.88955 1.32044 1.86284 1.3885 1.83891C1.45656 1.81498 1.52583 1.79393 1.59633 1.77578C1.66682 1.75763 1.73819 1.74245 1.81044 1.73024C1.88269 1.71804 1.95547 1.70888 2.02879 1.70275C2.1021 1.69662 2.17558 1.69356 2.24925 1.69356Z" fill="#312F2F"/>
<path fill-rule="evenodd" clip-rule="evenodd" d="M5.4263 0.564453H5.4278C5.46979 0.564453 5.51168 0.5662 5.55347 0.569695C5.59526 0.573189 5.63674 0.578414 5.67793 0.585369C5.71911 0.592324 5.7598 0.600976 5.79999 0.611325C5.84017 0.621673 5.87965 0.633668 5.91845 0.64731C5.95725 0.660953 5.99516 0.676177 6.03219 0.692983C6.06923 0.709789 6.1052 0.728095 6.14012 0.747902C6.17503 0.767708 6.20872 0.78892 6.24118 0.811537C6.27364 0.834154 6.30472 0.858066 6.33441 0.883272C6.3641 0.908483 6.39227 0.934867 6.41891 0.962425C6.44555 0.989983 6.47053 1.01858 6.49386 1.04823C6.51719 1.07787 6.53875 1.10841 6.55854 1.13985C6.57834 1.17129 6.59627 1.20348 6.61234 1.23641C6.62841 1.26935 6.64254 1.30288 6.65473 1.33699C6.66692 1.37111 6.67711 1.40565 6.68531 1.44061C6.6935 1.47558 6.69965 1.5108 6.70377 1.54628C6.70788 1.58176 6.70994 1.61732 6.70994 1.65297V3.80389C6.70994 3.83954 6.70788 3.87511 6.70377 3.91058C6.69965 3.94606 6.6935 3.98128 6.68531 4.01625C6.67711 4.05122 6.66692 4.08576 6.65473 4.11987C6.64254 4.15399 6.62841 4.18752 6.61234 4.22045C6.59627 4.25339 6.57834 4.28558 6.55854 4.31702C6.53875 4.34846 6.51719 4.379 6.49386 4.40864C6.47053 4.43828 6.44555 4.46688 6.41891 4.49444C6.39227 4.522 6.3641 4.54838 6.33441 4.57359C6.30472 4.5988 6.27364 4.62271 6.24118 4.64533C6.20872 4.66794 6.17503 4.68916 6.14012 4.70896C6.1052 4.72877 6.06923 4.74708 6.03219 4.76388C5.99516 4.78069 5.95725 4.79591 5.91845 4.80956C5.87965 4.8232 5.84017 4.83519 5.79999 4.84554C5.7598 4.85589 5.71911 4.86454 5.67793 4.8715C5.63674 4.87845 5.59526 4.88368 5.55347 4.88717C5.51168 4.89067 5.46979 4.89241 5.4278 4.89241H5.4263C5.38431 4.89241 5.34242 4.89067 5.30063 4.88717C5.25884 4.88368 5.21735 4.87845 5.17617 4.8715C5.13498 4.86454 5.09429 4.85589 5.05411 4.84554C5.01392 4.83519 4.97443 4.8232 4.93564 4.80956C4.89684 4.79591 4.85893 4.78069 4.82189 4.76388C4.78486 4.74708 4.74889 4.72877 4.71398 4.70896C4.67906 4.68916 4.64537 4.66794 4.61291 4.64533C4.58045 4.62271 4.54938 4.5988 4.51968 4.57359C4.48999 4.54838 4.46183 4.522 4.43519 4.49444C4.40855 4.46688 4.38356 4.43828 4.36023 4.40864C4.3369 4.379 4.31534 4.34846 4.29554 4.31702C4.27575 4.28558 4.25782 4.25339 4.24175 4.22045C4.22568 4.18752 4.21155 4.15399 4.19936 4.11987C4.18717 4.08576 4.17698 4.05122 4.16879 4.01625C4.1606 3.98128 4.15444 3.94606 4.15032 3.91058C4.14621 3.87511 4.14415 3.83954 4.14415 3.80389V1.65297C4.14415 1.61732 4.14621 1.58176 4.15032 1.54628C4.15444 1.5108 4.1606 1.47558 4.16879 1.44061C4.17698 1.40565 4.18717 1.37111 4.19936 1.33699C4.21155 1.30288 4.22568 1.26935 4.24175 1.23641C4.25782 1.20348 4.27575 1.17129 4.29554 1.13985C4.31534 1.10841 4.3369 1.07787 4.36023 1.04823C4.38356 1.01858 4.40855 0.989983 4.43519 0.962425C4.46183 0.934867 4.48999 0.908483 4.51968 0.883272C4.54938 0.858066 4.58045 0.834154 4.61291 0.811537C4.64537 0.78892 4.67906 0.767708 4.71398 0.747902C4.74889 0.728095 4.78486 0.709789 4.82189 0.692983C4.85893 0.676177 4.89684 0.660953 4.93564 0.64731C4.97443 0.633668 5.01392 0.621673 5.05411 0.611325C5.09429 0.600976 5.13498 0.592324 5.17617 0.585369C5.21735 0.578414 5.25884 0.573189 5.30063 0.569695C5.34242 0.5662 5.38431 0.564453 5.4263 0.564453Z" fill="white"/>
<path fill-rule="evenodd" clip-rule="evenodd" d="M4.83573 0H4.83723C4.8663 0 4.89529 0.00120927 4.92422 0.0036278C4.95314 0.00604635 4.98186 0.00966251 5.01036 0.0144763C5.03887 0.01929 5.06703 0.0252782 5.09484 0.0324409C5.12265 0.0396035 5.14998 0.0479062 5.17683 0.0573487C5.20368 0.0667913 5.22992 0.0773284 5.25555 0.0889599C5.28119 0.100591 5.30609 0.113261 5.33025 0.12697C5.35442 0.140678 5.37773 0.155359 5.4002 0.171012C5.42267 0.186666 5.44418 0.203216 5.46473 0.220664C5.48528 0.238112 5.50477 0.256373 5.52321 0.275446C5.54165 0.29452 5.55894 0.314315 5.57509 0.334831C5.59124 0.355347 5.60616 0.376486 5.61986 0.398247C5.63356 0.420008 5.64597 0.442287 5.6571 0.465083C5.66822 0.487879 5.678 0.511084 5.68644 0.534696C5.69487 0.558308 5.70192 0.582214 5.70759 0.606414C5.71326 0.630616 5.71752 0.654995 5.72037 0.679552C5.72322 0.704104 5.72464 0.728719 5.72464 0.753394V4.13908C5.72464 4.16376 5.72322 4.18837 5.72037 4.21293C5.71752 4.23748 5.71326 4.26186 5.70759 4.28606C5.70192 4.31026 5.69487 4.33417 5.68643 4.35778C5.67799 4.38139 5.66822 4.4046 5.6571 4.4274C5.64597 4.45019 5.63356 4.47247 5.61986 4.49423C5.60616 4.51599 5.59124 4.53713 5.57509 4.55765C5.55894 4.57816 5.54165 4.59796 5.52321 4.61703C5.50477 4.6361 5.48528 4.65436 5.46473 4.67181C5.44418 4.68926 5.42267 4.70581 5.4002 4.72146C5.37773 4.73712 5.35442 4.7518 5.33025 4.7655C5.30609 4.77921 5.28119 4.79188 5.25555 4.80352C5.22992 4.81515 5.20368 4.82568 5.17683 4.83512C5.14998 4.84457 5.12265 4.85287 5.09484 4.86003C5.06703 4.8672 5.03887 4.87319 5.01036 4.878C4.98186 4.88282 4.95314 4.88643 4.92422 4.88884C4.89529 4.89126 4.8663 4.89247 4.83723 4.89247H4.83573C4.80667 4.89247 4.77768 4.89126 4.74876 4.88884C4.71983 4.88643 4.69112 4.88282 4.66261 4.878C4.63411 4.87319 4.60595 4.8672 4.57814 4.86003C4.55032 4.85287 4.52299 4.84457 4.49614 4.83512C4.46929 4.82568 4.44305 4.81515 4.41741 4.80352C4.39178 4.79188 4.36689 4.77921 4.34272 4.7655C4.31856 4.7518 4.29524 4.73712 4.27277 4.72146C4.2503 4.70581 4.2288 4.68926 4.20825 4.67181C4.18769 4.65436 4.1682 4.6361 4.14976 4.61703C4.13132 4.59796 4.11403 4.57816 4.09788 4.55765C4.08174 4.53713 4.06681 4.51599 4.05311 4.49423C4.03941 4.47247 4.027 4.45019 4.01588 4.42739C4.00476 4.40459 3.99498 4.38139 3.98654 4.35778C3.9781 4.33417 3.97105 4.31026 3.96538 4.28606C3.95971 4.26186 3.95545 4.23748 3.9526 4.21293C3.94975 4.18837 3.94833 4.16376 3.94833 4.13908V0.753394C3.94833 0.728719 3.94975 0.704104 3.9526 0.679552C3.95545 0.654995 3.95971 0.630616 3.96538 0.606414C3.97105 0.582214 3.9781 0.558308 3.98654 0.534696C3.99498 0.511084 4.00476 0.487879 4.01588 0.465083C4.027 0.442287 4.03941 0.420008 4.05311 0.398247C4.06681 0.376486 4.08174 0.355347 4.09788 0.334831C4.11403 0.314315 4.13132 0.29452 4.14976 0.275446C4.1682 0.256373 4.18769 0.238112 4.20825 0.220664C4.2288 0.203216 4.2503 0.186666 4.27277 0.171012C4.29524 0.155359 4.31856 0.140678 4.34272 0.12697C4.36689 0.113261 4.39178 0.100591 4.41741 0.0889599C4.44305 0.0773284 4.46929 0.0667913 4.49614 0.0573487C4.52299 0.0479062 4.55032 0.0396035 4.57814 0.0324409C4.60595 0.0252782 4.63411 0.01929 4.66261 0.0144763C4.69112 0.00966251 4.71983 0.00604635 4.74876 0.0036278C4.77768 0.00120927 4.80667 0 4.83573 0Z" fill="#312F2F"/>
<path fill-rule="evenodd" clip-rule="evenodd" d="M10.5587 0.564453H10.5602C10.6022 0.564453 10.644 0.5662 10.6858 0.569695C10.7276 0.573189 10.7691 0.578414 10.8103 0.585369C10.8515 0.592324 10.8922 0.600976 10.9324 0.611325C10.9726 0.621673 11.0121 0.633668 11.0509 0.64731C11.0896 0.660953 11.1275 0.676177 11.1646 0.692983C11.2016 0.709789 11.2376 0.728095 11.2725 0.747902C11.3074 0.767708 11.3411 0.78892 11.3736 0.811537C11.406 0.834154 11.4371 0.858066 11.4668 0.883272C11.4965 0.908483 11.5247 0.934867 11.5513 0.962425C11.5779 0.989983 11.6029 1.01858 11.6263 1.04823C11.6496 1.07787 11.6711 1.10841 11.6909 1.13985C11.7107 1.17129 11.7286 1.20348 11.7447 1.23641C11.7608 1.26935 11.7749 1.30288 11.7871 1.33699C11.7993 1.37111 11.8095 1.40565 11.8177 1.44061C11.8259 1.47558 11.832 1.5108 11.8361 1.54628C11.8403 1.58176 11.8423 1.61732 11.8423 1.65297V3.80389C11.8423 3.83954 11.8403 3.87511 11.8361 3.91058C11.832 3.94606 11.8259 3.98128 11.8177 4.01625C11.8095 4.05122 11.7993 4.08576 11.7871 4.11987C11.7749 4.15399 11.7608 4.18752 11.7447 4.22045C11.7286 4.25339 11.7107 4.28558 11.6909 4.31702C11.6711 4.34846 11.6496 4.379 11.6263 4.40864C11.6029 4.43828 11.5779 4.46688 11.5513 4.49444C11.5247 4.522 11.4965 4.54838 11.4668 4.57359C11.4371 4.5988 11.406 4.62271 11.3736 4.64533C11.3411 4.66794 11.3074 4.68916 11.2725 4.70896C11.2376 4.72877 11.2016 4.74708 11.1646 4.76388C11.1275 4.78069 11.0896 4.79591 11.0509 4.80956C11.0121 4.8232 10.9726 4.83519 10.9324 4.84554C10.8922 4.85589 10.8515 4.86454 10.8103 4.8715C10.7691 4.87845 10.7276 4.88368 10.6858 4.88717C10.644 4.89067 10.6022 4.89241 10.5602 4.89241H10.5587C10.5167 4.89241 10.4748 4.89067 10.433 4.88717C10.3912 4.88368 10.3497 4.87845 10.3085 4.8715C10.2674 4.86454 10.2267 4.85589 10.1865 4.84554C10.1463 4.83519 10.1068 4.8232 10.068 4.80956C10.0292 4.79591 9.9913 4.78069 9.9543 4.76388C9.91725 4.74708 9.88127 4.72877 9.84637 4.70896C9.81147 4.68916 9.77777 4.66794 9.74527 4.64533C9.71282 4.62271 9.68174 4.5988 9.65204 4.57359C9.62234 4.54838 9.5942 4.522 9.5676 4.49444C9.54095 4.46688 9.51594 4.43828 9.49259 4.40864C9.46929 4.379 9.44775 4.34846 9.42795 4.31702C9.40815 4.28558 9.39022 4.25339 9.37417 4.22045C9.35807 4.18752 9.34392 4.15399 9.33172 4.11987C9.31957 4.08576 9.3094 4.05122 9.3012 4.01625C9.293 3.98128 9.28685 3.94606 9.28275 3.91058C9.2786 3.87511 9.27652 3.83954 9.27652 3.80389V1.65297C9.27652 1.61732 9.2786 1.58176 9.28275 1.54628C9.28685 1.5108 9.293 1.47558 9.3012 1.44061C9.3094 1.40565 9.31957 1.37111 9.33172 1.33699C9.34392 1.30288 9.35807 1.26935 9.37417 1.23641C9.39022 1.20348 9.40815 1.17129 9.42795 1.13985C9.44775 1.10841 9.46929 1.07787 9.49259 1.04823C9.51594 1.01858 9.54095 0.989983 9.5676 0.962425C9.5942 0.934867 9.62234 0.908483 9.65204 0.883272C9.68174 0.858066 9.71282 0.834154 9.74527 0.811537C9.77777 0.78892 9.81147 0.767708 9.84637 0.747902C9.88127 0.728095 9.91725 0.709789 9.9543 0.692983C9.9913 0.676177 10.0292 0.660953 10.068 0.64731C10.1068 0.633668 10.1463 0.621673 10.1865 0.611325C10.2267 0.600976 10.2674 0.592324 10.3085 0.585369C10.3497 0.578414 10.3912 0.573189 10.433 0.569695C10.4748 0.5662 10.5167 0.564453 10.5587 0.564453Z" fill="white"/>
<path fill-rule="evenodd" clip-rule="evenodd" d="M9.96658 0H9.96808C9.99713 0 10.0261 0.00120927 10.0551 0.0036278C10.084 0.00604635 10.1127 0.00966251 10.1412 0.0144763C10.1697 0.0192901 10.1978 0.0252783 10.2256 0.0324409C10.2535 0.0396036 10.2808 0.0479062 10.3077 0.0573487C10.3345 0.0667913 10.3608 0.0773284 10.3864 0.0889599C10.412 0.100591 10.4369 0.113261 10.4611 0.12697C10.4853 0.140678 10.5086 0.155359 10.531 0.171012C10.5535 0.186666 10.575 0.203216 10.5955 0.220664C10.6161 0.238112 10.6356 0.256373 10.654 0.275446C10.6725 0.29452 10.6898 0.314315 10.7059 0.334831C10.7221 0.355347 10.737 0.376486 10.7507 0.398247C10.7644 0.420008 10.7768 0.442287 10.7879 0.465083C10.7991 0.487879 10.8088 0.511084 10.8172 0.534696C10.8257 0.558308 10.8328 0.582214 10.8385 0.606415C10.8441 0.630616 10.8484 0.654995 10.8512 0.679552C10.8541 0.704104 10.8555 0.728719 10.8555 0.753394V4.13908C10.8555 4.16376 10.8541 4.18837 10.8512 4.21292C10.8484 4.23748 10.8441 4.26186 10.8385 4.28606C10.8328 4.31026 10.8257 4.33417 10.8172 4.35778C10.8088 4.38139 10.7991 4.40459 10.7879 4.42739C10.7768 4.45019 10.7644 4.47247 10.7507 4.49423C10.737 4.51599 10.7221 4.53713 10.7059 4.55765C10.6898 4.57816 10.6725 4.59796 10.654 4.61703C10.6356 4.6361 10.6161 4.65436 10.5955 4.67181C10.575 4.68926 10.5535 4.70581 10.531 4.72146C10.5086 4.73712 10.4853 4.7518 10.4611 4.7655C10.4369 4.77921 10.412 4.79188 10.3864 4.80352C10.3608 4.81515 10.3345 4.82568 10.3077 4.83512C10.2808 4.84457 10.2535 4.85287 10.2256 4.86003C10.1978 4.8672 10.1697 4.87319 10.1412 4.878C10.1127 4.88282 10.084 4.88643 10.0551 4.88884C10.0261 4.89126 9.99713 4.89247 9.96808 4.89247H9.96658C9.93753 4.89247 9.90853 4.89126 9.87958 4.88884C9.85068 4.88643 9.82195 4.88282 9.7934 4.878C9.7649 4.87319 9.73675 4.8672 9.70895 4.86003C9.68115 4.85287 9.65383 4.84457 9.62698 4.83512C9.60013 4.82568 9.57388 4.81515 9.54823 4.80352C9.52263 4.79188 9.49773 4.77921 9.47353 4.7655C9.44938 4.7518 9.42608 4.73712 9.40363 4.72146C9.38113 4.70581 9.3596 4.68926 9.33905 4.67181C9.3185 4.65436 9.299 4.6361 9.28055 4.61703C9.26215 4.59796 9.24488 4.57816 9.22873 4.55765C9.21258 4.53713 9.19765 4.51599 9.18395 4.49423C9.17025 4.47247 9.15783 4.45019 9.14668 4.42739C9.13558 4.40459 9.1258 4.38139 9.11735 4.35778C9.1089 4.33417 9.10185 4.31026 9.0962 4.28606C9.09055 4.26186 9.0863 4.23748 9.08345 4.21292C9.0806 4.18837 9.07918 4.16376 9.07918 4.13908V0.753394C9.07918 0.728719 9.0806 0.704104 9.08345 0.679552C9.0863 0.654995 9.09055 0.630616 9.0962 0.606415C9.10185 0.582214 9.1089 0.558308 9.11735 0.534696C9.1258 0.511084 9.13558 0.487879 9.14668 0.465083C9.15783 0.442287 9.17025 0.420008 9.18395 0.398247C9.19765 0.376486 9.21258 0.355347 9.22873 0.334831C9.24488 0.314315 9.26215 0.29452 9.28055 0.275446C9.299 0.256373 9.3185 0.238112 9.33905 0.220664C9.3596 0.203216 9.38113 0.186666 9.40363 0.171012C9.42608 0.155359 9.44938 0.140678 9.47353 0.12697C9.49773 0.113261 9.52263 0.100591 9.54823 0.0889599C9.57388 0.0773284 9.60013 0.0667913 9.62698 0.0573487C9.65383 0.0479062 9.68115 0.0396036 9.70895 0.0324409C9.73675 0.0252783 9.7649 0.0192901 9.7934 0.0144763C9.82195 0.00966251 9.85068 0.00604635 9.87958 0.0036278C9.90853 0.00120927 9.93753 0 9.96658 0Z" fill="#312F2F"/>
<path fill-rule="evenodd" clip-rule="evenodd" d="M15.4922 0.564453H15.4937C15.5357 0.564453 15.5776 0.5662 15.6194 0.569695C15.6611 0.573189 15.7026 0.578414 15.7438 0.585369C15.785 0.592324 15.8257 0.600976 15.8658 0.611325C15.906 0.621673 15.9455 0.633668 15.9843 0.64731C16.0231 0.660953 16.061 0.676177 16.0981 0.692983C16.1351 0.709789 16.1711 0.728095 16.206 0.747902C16.2409 0.767708 16.2746 0.78892 16.307 0.811537C16.3395 0.834154 16.3706 0.858066 16.4003 0.883272C16.43 0.908483 16.4581 0.934867 16.4848 0.962425C16.5114 0.989983 16.5364 1.01858 16.5597 1.04823C16.5831 1.07787 16.6046 1.10841 16.6244 1.13985C16.6442 1.17129 16.6622 1.20348 16.6782 1.23641C16.6943 1.26935 16.7084 1.30288 16.7206 1.33699C16.7328 1.37111 16.743 1.40565 16.7512 1.44061C16.7594 1.47558 16.7655 1.5108 16.7696 1.54628C16.7737 1.58176 16.7758 1.61732 16.7758 1.65297V3.80389C16.7758 3.83954 16.7737 3.87511 16.7696 3.91059C16.7655 3.94606 16.7594 3.98128 16.7512 4.01625C16.743 4.05122 16.7328 4.08576 16.7206 4.11987C16.7084 4.15399 16.6943 4.18752 16.6782 4.22045C16.6622 4.25339 16.6442 4.28558 16.6244 4.31702C16.6046 4.34846 16.5831 4.379 16.5597 4.40864C16.5364 4.43828 16.5114 4.46688 16.4848 4.49444C16.4581 4.522 16.43 4.54838 16.4003 4.57359C16.3706 4.5988 16.3395 4.62271 16.307 4.64533C16.2746 4.66794 16.2409 4.68916 16.206 4.70896C16.1711 4.72877 16.1351 4.74708 16.0981 4.76388C16.061 4.78069 16.0231 4.79591 15.9843 4.80956C15.9455 4.8232 15.906 4.83519 15.8658 4.84554C15.8257 4.85589 15.785 4.86454 15.7438 4.8715C15.7026 4.87845 15.6611 4.88368 15.6194 4.88717C15.5776 4.89067 15.5357 4.89241 15.4937 4.89241H15.4922C15.4502 4.89241 15.4083 4.89067 15.3665 4.88717C15.3247 4.88368 15.2832 4.87845 15.242 4.8715C15.2008 4.86454 15.1601 4.85589 15.1199 4.84554C15.0798 4.83519 15.0403 4.8232 15.0015 4.80956C14.9627 4.79591 14.9248 4.78069 14.8877 4.76388C14.8507 4.74708 14.8148 4.72877 14.7798 4.70896C14.7449 4.68916 14.7112 4.66794 14.6788 4.64533C14.6463 4.62271 14.6153 4.5988 14.5856 4.57359C14.5559 4.54838 14.5277 4.522 14.501 4.49444C14.4744 4.46688 14.4494 4.43828 14.4261 4.40864C14.4028 4.379 14.3812 4.34846 14.3614 4.31702C14.3416 4.28558 14.3237 4.25339 14.3076 4.22045C14.2916 4.18752 14.2774 4.15399 14.2652 4.11987C14.253 4.08576 14.2428 4.05122 14.2346 4.01625C14.2264 3.98128 14.2203 3.94606 14.2162 3.91059C14.2121 3.87511 14.21 3.83954 14.21 3.80389V1.65297C14.21 1.61732 14.2121 1.58176 14.2162 1.54628C14.2203 1.5108 14.2264 1.47558 14.2346 1.44061C14.2428 1.40565 14.253 1.37111 14.2652 1.33699C14.2774 1.30288 14.2916 1.26935 14.3076 1.23641C14.3237 1.20348 14.3416 1.17129 14.3614 1.13985C14.3812 1.10841 14.4028 1.07787 14.4261 1.04823C14.4494 1.01858 14.4744 0.989983 14.501 0.962425C14.5277 0.934867 14.5559 0.908483 14.5856 0.883272C14.6153 0.858066 14.6463 0.834154 14.6788 0.811537C14.7112 0.78892 14.7449 0.767708 14.7798 0.747902C14.8148 0.728095 14.8507 0.709789 14.8877 0.692983C14.9248 0.676177 14.9627 0.660953 15.0015 0.64731C15.0403 0.633668 15.0798 0.621673 15.1199 0.611325C15.1601 0.600976 15.2008 0.592324 15.242 0.585369C15.2832 0.578414 15.3247 0.573189 15.3665 0.569695C15.4083 0.5662 15.4502 0.564453 15.4922 0.564453Z" fill="white"/>
<path fill-rule="evenodd" clip-rule="evenodd" d="M14.9001 0H14.9016C14.9306 0 14.9596 0.00120927 14.9886 0.0036278C15.0175 0.00604635 15.0462 0.00966251 15.0747 0.0144763C15.1032 0.0192901 15.1314 0.0252783 15.1592 0.0324409C15.187 0.0396036 15.2143 0.0479062 15.2412 0.0573487C15.268 0.0667913 15.2943 0.0773284 15.3199 0.0889599C15.3455 0.100591 15.3704 0.113261 15.3946 0.12697C15.4188 0.140678 15.4421 0.155359 15.4645 0.171012C15.487 0.186666 15.5086 0.203216 15.5291 0.220664C15.5497 0.238112 15.5691 0.256373 15.5875 0.275446C15.606 0.29452 15.6233 0.314315 15.6394 0.334831C15.6556 0.355347 15.6705 0.376486 15.6842 0.398247C15.6979 0.420008 15.7103 0.442287 15.7215 0.465083C15.7326 0.487879 15.7424 0.511084 15.7508 0.534696C15.7592 0.558308 15.7663 0.582214 15.772 0.606415C15.7776 0.630616 15.7819 0.654995 15.7847 0.679552C15.7876 0.704104 15.789 0.728719 15.789 0.753394V4.13908C15.789 4.16376 15.7876 4.18837 15.7847 4.21292C15.7819 4.23748 15.7776 4.26186 15.772 4.28606C15.7663 4.31026 15.7592 4.33417 15.7508 4.35778C15.7424 4.38139 15.7326 4.40459 15.7215 4.42739C15.7103 4.45019 15.6979 4.47247 15.6842 4.49423C15.6705 4.51599 15.6556 4.53713 15.6394 4.55765C15.6233 4.57816 15.606 4.59796 15.5875 4.61703C15.5691 4.6361 15.5497 4.65436 15.5291 4.67181C15.5086 4.68926 15.487 4.70581 15.4645 4.72146C15.4421 4.73712 15.4188 4.7518 15.3946 4.7655C15.3704 4.77921 15.3455 4.79188 15.3199 4.80352C15.2943 4.81515 15.268 4.82568 15.2412 4.83512C15.2143 4.84457 15.187 4.85287 15.1592 4.86003C15.1314 4.8672 15.1032 4.87319 15.0747 4.878C15.0462 4.88282 15.0175 4.88643 14.9886 4.88884C14.9596 4.89126 14.9306 4.89247 14.9016 4.89247H14.9001C14.871 4.89247 14.842 4.89126 14.8131 4.88884C14.7842 4.88643 14.7555 4.88282 14.727 4.878C14.6985 4.87319 14.6703 4.8672 14.6425 4.86003C14.6147 4.85287 14.5873 4.84457 14.5605 4.83512C14.5336 4.82568 14.5074 4.81515 14.4818 4.80352C14.4562 4.79188 14.4313 4.77921 14.4071 4.7655C14.3829 4.7518 14.3596 4.73712 14.3371 4.72146C14.3147 4.70581 14.2932 4.68926 14.2726 4.67181C14.2521 4.65436 14.2326 4.6361 14.2141 4.61703C14.1957 4.59796 14.1784 4.57816 14.1622 4.55765C14.1461 4.53713 14.1312 4.51599 14.1175 4.49423C14.1038 4.47247 14.0914 4.45019 14.0803 4.42739C14.0691 4.40459 14.0593 4.38139 14.0509 4.35778C14.0425 4.33417 14.0354 4.31026 14.0297 4.28606C14.0241 4.26186 14.0198 4.23748 14.017 4.21292C14.0141 4.18837 14.0127 4.16376 14.0127 4.13908V0.753394C14.0127 0.728719 14.0141 0.704104 14.017 0.679552C14.0198 0.654995 14.0241 0.630616 14.0297 0.606415C14.0354 0.582214 14.0425 0.558308 14.0509 0.534696C14.0593 0.511084 14.0691 0.487879 14.0803 0.465083C14.0914 0.442287 14.1038 0.420008 14.1175 0.398247C14.1312 0.376486 14.1461 0.355347 14.1622 0.334831C14.1784 0.314315 14.1957 0.29452 14.2141 0.275446C14.2326 0.256373 14.2521 0.238112 14.2726 0.220664C14.2932 0.203216 14.3147 0.186666 14.3371 0.171012C14.3596 0.155359 14.3829 0.140678 14.4071 0.12697C14.4313 0.113261 14.4562 0.100591 14.4818 0.0889599C14.5074 0.0773284 14.5336 0.0667913 14.5605 0.0573487C14.5873 0.0479062 14.6147 0.0396036 14.6425 0.0324409C14.6703 0.0252783 14.6985 0.0192901 14.727 0.0144763C14.7555 0.00966251 14.7842 0.00604635 14.8131 0.0036278C14.842 0.00120927 14.871 0 14.9001 0Z" fill="#312F2F"/>
<path fill-rule="evenodd" clip-rule="evenodd" d="M20.6245 0.564453H20.626C20.668 0.564453 20.7099 0.5662 20.7517 0.569695C20.7935 0.573189 20.835 0.578414 20.8762 0.585369C20.9174 0.592324 20.958 0.600976 20.9982 0.611325C21.0384 0.621673 21.0779 0.633668 21.1167 0.64731C21.1555 0.660953 21.1934 0.676177 21.2305 0.692983C21.2675 0.709789 21.3034 0.728095 21.3384 0.747902C21.3733 0.767708 21.407 0.78892 21.4394 0.811537C21.4719 0.834154 21.5029 0.858066 21.5326 0.883272C21.5623 0.908483 21.5905 0.934867 21.6172 0.962425C21.6438 0.989983 21.6688 1.01858 21.6921 1.04823C21.7154 1.07787 21.737 1.10841 21.7568 1.13985C21.7766 1.17129 21.7945 1.20348 21.8106 1.23641C21.8266 1.26935 21.8408 1.30288 21.853 1.33699C21.8652 1.37111 21.8754 1.40565 21.8836 1.44061C21.8918 1.47558 21.8979 1.5108 21.902 1.54628C21.9061 1.58176 21.9082 1.61732 21.9082 1.65297V3.80389C21.9082 3.83954 21.9061 3.87511 21.902 3.91059C21.8979 3.94607 21.8918 3.98129 21.8836 4.01625C21.8754 4.05122 21.8652 4.08576 21.853 4.11987C21.8408 4.15399 21.8266 4.18752 21.8106 4.22045C21.7945 4.25339 21.7766 4.28558 21.7568 4.31702C21.737 4.34846 21.7154 4.379 21.6921 4.40864C21.6688 4.43828 21.6438 4.46688 21.6172 4.49444C21.5905 4.522 21.5623 4.54838 21.5326 4.57359C21.5029 4.5988 21.4719 4.62271 21.4394 4.64533C21.407 4.66794 21.3733 4.68916 21.3384 4.70896C21.3034 4.72877 21.2675 4.74708 21.2305 4.76388C21.1934 4.78069 21.1555 4.79591 21.1167 4.80956C21.0779 4.8232 21.0384 4.83519 20.9982 4.84554C20.958 4.85589 20.9174 4.86454 20.8762 4.8715C20.835 4.87845 20.7935 4.88368 20.7517 4.88717C20.7099 4.89067 20.668 4.89241 20.626 4.89241H20.6245C20.5825 4.89241 20.5406 4.89067 20.4988 4.88717C20.4571 4.88368 20.4156 4.87845 20.3744 4.8715C20.3332 4.86454 20.2925 4.85589 20.2523 4.84554C20.2122 4.83519 20.1727 4.8232 20.1339 4.80956C20.0951 4.79591 20.0572 4.78069 20.0201 4.76388C19.9831 4.74708 19.9471 4.72877 19.9122 4.70896C19.8773 4.68916 19.8436 4.66794 19.8112 4.64533C19.7787 4.62271 19.7476 4.5988 19.7179 4.57359C19.6882 4.54838 19.6601 4.522 19.6334 4.49444C19.6068 4.46688 19.5818 4.43828 19.5585 4.40864C19.5351 4.379 19.5136 4.34846 19.4938 4.31702C19.474 4.28558 19.456 4.25339 19.44 4.22045C19.4239 4.18752 19.4098 4.15399 19.3976 4.11987C19.3854 4.08576 19.3752 4.05122 19.367 4.01625C19.3588 3.98129 19.3527 3.94607 19.3486 3.91059C19.3445 3.87511 19.3424 3.83954 19.3424 3.80389V1.65297C19.3424 1.61732 19.3445 1.58176 19.3486 1.54628C19.3527 1.5108 19.3588 1.47558 19.367 1.44061C19.3752 1.40565 19.3854 1.37111 19.3976 1.33699C19.4098 1.30288 19.4239 1.26935 19.44 1.23641C19.456 1.20348 19.474 1.17129 19.4938 1.13985C19.5136 1.10841 19.5351 1.07787 19.5585 1.04823C19.5818 1.01858 19.6068 0.989983 19.6334 0.962425C19.6601 0.934867 19.6882 0.908483 19.7179 0.883272C19.7476 0.858066 19.7787 0.834154 19.8112 0.811537C19.8436 0.78892 19.8773 0.767708 19.9122 0.747902C19.9471 0.728095 19.9831 0.709789 20.0201 0.692983C20.0572 0.676177 20.0951 0.660953 20.1339 0.64731C20.1727 0.633668 20.2122 0.621673 20.2523 0.611325C20.2925 0.600976 20.3332 0.592324 20.3744 0.585369C20.4156 0.578414 20.4571 0.573189 20.4988 0.569695C20.5406 0.5662 20.5825 0.564453 20.6245 0.564453Z" fill="white"/>
<path fill-rule="evenodd" clip-rule="evenodd" d="M20.0309 0H20.0324C20.0615 0 20.0905 0.00120927 20.1194 0.0036278C20.1484 0.00604635 20.1771 0.00966251 20.2056 0.0144763C20.2341 0.0192901 20.2623 0.0252783 20.2901 0.0324409C20.3179 0.0396036 20.3452 0.0479062 20.372 0.0573487C20.3989 0.0667913 20.4251 0.0773284 20.4508 0.0889599C20.4764 0.100591 20.5013 0.113261 20.5255 0.12697C20.5496 0.140678 20.573 0.155359 20.5955 0.171012C20.6179 0.186666 20.6394 0.203216 20.66 0.220664C20.6805 0.238112 20.7 0.256373 20.7185 0.275446C20.7369 0.29452 20.7541 0.314315 20.7703 0.334831C20.7864 0.355347 20.8014 0.376486 20.8151 0.398247C20.8288 0.420008 20.8412 0.442287 20.8523 0.465083C20.8634 0.487879 20.8732 0.511084 20.8817 0.534696C20.8901 0.558308 20.8972 0.582214 20.9028 0.606415C20.9085 0.630616 20.9127 0.654995 20.9156 0.679552C20.9184 0.704104 20.9198 0.728719 20.9198 0.753394V4.13908C20.9198 4.16376 20.9184 4.18837 20.9156 4.21292C20.9127 4.23748 20.9085 4.26186 20.9028 4.28606C20.8972 4.31026 20.8901 4.33417 20.8817 4.35778C20.8732 4.38139 20.8634 4.40459 20.8523 4.42739C20.8412 4.45019 20.8288 4.47247 20.8151 4.49423C20.8014 4.51599 20.7864 4.53713 20.7703 4.55765C20.7541 4.57816 20.7369 4.59796 20.7185 4.61703C20.7 4.6361 20.6805 4.65436 20.66 4.67181C20.6394 4.68926 20.6179 4.70581 20.5955 4.72146C20.573 4.73712 20.5496 4.7518 20.5255 4.7655C20.5013 4.77921 20.4764 4.79188 20.4508 4.80352C20.4251 4.81515 20.3989 4.82568 20.372 4.83512C20.3452 4.84457 20.3179 4.85287 20.2901 4.86003C20.2623 4.8672 20.2341 4.87319 20.2056 4.878C20.1771 4.88282 20.1484 4.88643 20.1194 4.88884C20.0905 4.89126 20.0615 4.89247 20.0324 4.89247H20.0309C20.0019 4.89247 19.9729 4.89126 19.944 4.88884C19.9151 4.88643 19.8863 4.88282 19.8578 4.878C19.8293 4.87319 19.8012 4.8672 19.7734 4.86003C19.7455 4.85287 19.7182 4.84457 19.6913 4.83512C19.6645 4.82568 19.6383 4.81515 19.6127 4.80352C19.587 4.79188 19.5621 4.77921 19.538 4.7655C19.5138 4.7518 19.4904 4.73712 19.468 4.72146C19.4455 4.70581 19.424 4.68926 19.4035 4.67181C19.3829 4.65436 19.3634 4.6361 19.345 4.61703C19.3265 4.59796 19.3092 4.57816 19.2931 4.55765C19.2769 4.53713 19.262 4.51599 19.2483 4.49423C19.2346 4.47247 19.2222 4.45019 19.2111 4.42739C19.2 4.40459 19.1902 4.38139 19.1818 4.35778C19.1733 4.33417 19.1663 4.31026 19.1606 4.28606C19.1549 4.26186 19.1507 4.23748 19.1478 4.21292C19.145 4.18837 19.1435 4.16376 19.1435 4.13908V0.753394C19.1435 0.728719 19.145 0.704104 19.1478 0.679552C19.1507 0.654995 19.1549 0.630616 19.1606 0.606415C19.1663 0.582214 19.1733 0.558308 19.1818 0.534696C19.1902 0.511084 19.2 0.487879 19.2111 0.465083C19.2222 0.442287 19.2346 0.420008 19.2483 0.398247C19.262 0.376486 19.2769 0.355347 19.2931 0.334831C19.3092 0.314315 19.3265 0.29452 19.345 0.275446C19.3634 0.256373 19.3829 0.238112 19.4035 0.220664C19.424 0.203216 19.4455 0.186666 19.468 0.171012C19.4904 0.155359 19.5138 0.140678 19.538 0.12697C19.5621 0.113261 19.587 0.100591 19.6127 0.0889599C19.6383 0.0773284 19.6645 0.0667913 19.6913 0.0573487C19.7182 0.0479062 19.7455 0.0396036 19.7734 0.0324409C19.8012 0.0252783 19.8293 0.0192901 19.8578 0.0144763C19.8863 0.00966251 19.9151 0.00604635 19.944 0.0036278C19.9729 0.00120927 20.0019 0 20.0309 0Z" fill="#312F2F"/>
<path fill-rule="evenodd" clip-rule="evenodd" d="M25.5596 0.564453H25.5611C25.6031 0.564453 25.645 0.5662 25.6868 0.569695C25.7286 0.573189 25.7701 0.578414 25.8113 0.585369C25.8524 0.592324 25.8931 0.600976 25.9333 0.611325C25.9735 0.621673 26.013 0.633668 26.0517 0.64731C26.0905 0.660953 26.1284 0.676177 26.1655 0.692983C26.2025 0.709789 26.2385 0.728095 26.2734 0.747902C26.3083 0.767708 26.342 0.78892 26.3745 0.811537C26.407 0.834154 26.438 0.858066 26.4677 0.883272C26.4974 0.908483 26.5256 0.934867 26.5522 0.962425C26.5788 0.989983 26.6038 1.01858 26.6272 1.04823C26.6505 1.07787 26.672 1.10841 26.6918 1.13985C26.7116 1.17129 26.7296 1.20348 26.7456 1.23641C26.7617 1.26935 26.7759 1.30288 26.7881 1.33699C26.8002 1.37111 26.8104 1.40565 26.8186 1.44061C26.8268 1.47558 26.8329 1.5108 26.837 1.54628C26.8412 1.58176 26.8433 1.61732 26.8433 1.65297V3.80389C26.8433 3.83954 26.8412 3.87511 26.837 3.91059C26.8329 3.94606 26.8268 3.98128 26.8186 4.01625C26.8104 4.05122 26.8002 4.08576 26.7881 4.11987C26.7759 4.15399 26.7617 4.18752 26.7456 4.22045C26.7296 4.25339 26.7116 4.28558 26.6918 4.31702C26.672 4.34846 26.6505 4.379 26.6272 4.40864C26.6038 4.43828 26.5788 4.46688 26.5522 4.49444C26.5256 4.522 26.4974 4.54838 26.4677 4.57359C26.438 4.5988 26.407 4.62271 26.3745 4.64533C26.342 4.66794 26.3083 4.68916 26.2734 4.70896C26.2385 4.72877 26.2025 4.74708 26.1655 4.76388C26.1284 4.78069 26.0905 4.79591 26.0517 4.80956C26.013 4.8232 25.9735 4.83519 25.9333 4.84554C25.8931 4.85589 25.8524 4.86454 25.8113 4.8715C25.7701 4.87845 25.7286 4.88368 25.6868 4.88717C25.645 4.89067 25.6031 4.89241 25.5611 4.89241H25.5596C25.5176 4.89241 25.4757 4.89067 25.4339 4.88717C25.3921 4.88368 25.3506 4.87845 25.3094 4.8715C25.2683 4.86454 25.2276 4.85589 25.1874 4.84554C25.1472 4.83519 25.1077 4.8232 25.0689 4.80956C25.0301 4.79591 24.9922 4.78069 24.9552 4.76388C24.9182 4.74708 24.8822 4.72877 24.8473 4.70896C24.8124 4.68916 24.7787 4.66794 24.7462 4.64533C24.7137 4.62271 24.6827 4.5988 24.653 4.57359C24.6233 4.54838 24.5951 4.522 24.5685 4.49444C24.5419 4.46688 24.5169 4.43828 24.4935 4.40864C24.4702 4.379 24.4487 4.34846 24.4289 4.31702C24.4091 4.28558 24.3911 4.25339 24.3751 4.22045C24.359 4.18752 24.3448 4.15399 24.3326 4.11987C24.3205 4.08576 24.3103 4.05122 24.3021 4.01625C24.2939 3.98128 24.2878 3.94606 24.2837 3.91059C24.2795 3.87511 24.2774 3.83954 24.2774 3.80389V1.65297C24.2774 1.61732 24.2795 1.58176 24.2837 1.54628C24.2878 1.5108 24.2939 1.47558 24.3021 1.44061C24.3103 1.40565 24.3205 1.37111 24.3326 1.33699C24.3448 1.30288 24.359 1.26935 24.3751 1.23641C24.3911 1.20348 24.4091 1.17129 24.4289 1.13985C24.4487 1.10841 24.4702 1.07787 24.4935 1.04823C24.5169 1.01858 24.5419 0.989983 24.5685 0.962425C24.5951 0.934867 24.6233 0.908483 24.653 0.883272C24.6827 0.858066 24.7137 0.834154 24.7462 0.811537C24.7787 0.78892 24.8124 0.767708 24.8473 0.747902C24.8822 0.728095 24.9182 0.709789 24.9552 0.692983C24.9922 0.676177 25.0301 0.660953 25.0689 0.64731C25.1077 0.633668 25.1472 0.621673 25.1874 0.611325C25.2276 0.600976 25.2683 0.592324 25.3094 0.585369C25.3506 0.578414 25.3921 0.573189 25.4339 0.569695C25.4757 0.5662 25.5176 0.564453 25.5596 0.564453Z" fill="white"/>
<path fill-rule="evenodd" clip-rule="evenodd" d="M24.966 0H24.9675C24.9965 0 25.0255 0.00120927 25.0544 0.0036278C25.0833 0.00604635 25.1121 0.00966249 25.1406 0.0144762C25.1691 0.01929 25.1972 0.0252782 25.225 0.0324409C25.2529 0.0396035 25.2802 0.0479062 25.3071 0.0573487C25.3339 0.0667913 25.3601 0.0773284 25.3857 0.0889599C25.4114 0.100591 25.4363 0.113261 25.4604 0.12697C25.4846 0.140678 25.5079 0.155359 25.5304 0.171012C25.5529 0.186666 25.5744 0.203216 25.5949 0.220664C25.6155 0.238111 25.635 0.256372 25.6534 0.275446C25.6719 0.29452 25.6892 0.314315 25.7053 0.334831C25.7215 0.355347 25.7364 0.376486 25.7501 0.398247C25.7638 0.420008 25.7762 0.442286 25.7873 0.465083C25.7984 0.487879 25.8082 0.511083 25.8166 0.534695C25.8251 0.558308 25.8321 0.582214 25.8378 0.606414C25.8435 0.630616 25.8477 0.654993 25.8506 0.679545C25.8534 0.704102 25.8549 0.728719 25.8549 0.753394V4.13908C25.8549 4.16376 25.8534 4.18837 25.8506 4.21293C25.8477 4.23748 25.8435 4.26186 25.8378 4.28606C25.8321 4.31026 25.8251 4.33417 25.8166 4.35778C25.8082 4.38139 25.7984 4.4046 25.7873 4.4274C25.7762 4.45019 25.7638 4.47247 25.7501 4.49423C25.7364 4.51599 25.7215 4.53713 25.7053 4.55765C25.6892 4.57816 25.6719 4.59796 25.6534 4.61703C25.635 4.6361 25.6155 4.65436 25.5949 4.67181C25.5744 4.68926 25.5529 4.70581 25.5304 4.72146C25.5079 4.73712 25.4846 4.7518 25.4604 4.7655C25.4363 4.77921 25.4114 4.79188 25.3857 4.80352C25.3601 4.81515 25.3339 4.82568 25.3071 4.83512C25.2802 4.84457 25.2529 4.85287 25.225 4.86003C25.1972 4.8672 25.1691 4.87319 25.1406 4.878C25.1121 4.88282 25.0833 4.88643 25.0544 4.88884C25.0255 4.89126 24.9965 4.89247 24.9675 4.89247H24.966C24.9369 4.89247 24.9079 4.89126 24.879 4.88884C24.85 4.88643 24.8213 4.88282 24.7928 4.878C24.7643 4.87319 24.7361 4.8672 24.7083 4.86003C24.6805 4.85287 24.6532 4.84457 24.6264 4.83512C24.5995 4.82568 24.5733 4.81515 24.5476 4.80352C24.522 4.79188 24.4971 4.77921 24.4729 4.7655C24.4488 4.7518 24.4254 4.73712 24.4029 4.72146C24.3805 4.70581 24.359 4.68926 24.3384 4.67181C24.3179 4.65436 24.2984 4.6361 24.2799 4.61703C24.2615 4.59796 24.2443 4.57816 24.2281 4.55765C24.212 4.53713 24.197 4.51599 24.1833 4.49423C24.1696 4.47247 24.1572 4.45019 24.1461 4.4274C24.135 4.4046 24.1252 4.38139 24.1167 4.35778C24.1083 4.33417 24.1012 4.31026 24.0956 4.28606C24.0899 4.26186 24.0856 4.23748 24.0828 4.21293C24.08 4.18837 24.0786 4.16376 24.0786 4.13908V0.753394C24.0786 0.728719 24.08 0.704102 24.0828 0.679545C24.0856 0.654993 24.0899 0.630616 24.0956 0.606414C24.1012 0.582214 24.1083 0.558307 24.1167 0.534695C24.1252 0.511083 24.135 0.487879 24.1461 0.465083C24.1572 0.442286 24.1696 0.420008 24.1833 0.398247C24.197 0.376486 24.212 0.355347 24.2281 0.334831C24.2443 0.314315 24.2615 0.29452 24.2799 0.275446C24.2984 0.256372 24.3179 0.238111 24.3384 0.220664C24.359 0.203216 24.3805 0.186666 24.4029 0.171012C24.4254 0.155359 24.4488 0.140678 24.4729 0.12697C24.4971 0.113261 24.522 0.100591 24.5476 0.0889599C24.5733 0.0773284 24.5995 0.0667913 24.6264 0.0573487C24.6532 0.0479062 24.6805 0.0396035 24.7083 0.0324409C24.7361 0.0252782 24.7643 0.01929 24.7928 0.0144762C24.8213 0.00966249 24.85 0.00604635 24.879 0.0036278C24.9079 0.00120927 24.9369 0 24.966 0Z" fill="#312F2F"/>
<path fill-rule="evenodd" clip-rule="evenodd" d="M6.71952 10.3496H19.9236C19.9563 10.3496 19.9888 10.351 20.0213 10.3537C20.0538 10.3564 20.086 10.3605 20.118 10.3658C20.15 10.3713 20.1816 10.378 20.2129 10.386C20.2441 10.3941 20.2748 10.4034 20.305 10.414C20.3351 10.4246 20.3646 10.4364 20.3934 10.4495C20.4222 10.4626 20.4502 10.4768 20.4773 10.4922C20.5044 10.5076 20.5306 10.5241 20.5559 10.5416C20.5811 10.5593 20.6053 10.5779 20.6283 10.5974C20.6514 10.617 20.6733 10.6375 20.694 10.6589C20.7147 10.6804 20.7341 10.7026 20.7523 10.7257C20.7704 10.7487 20.7871 10.7724 20.8025 10.7969C20.8179 10.8213 20.8319 10.8463 20.8444 10.8719C20.8569 10.8975 20.8679 10.9236 20.8773 10.9501C20.8868 10.9766 20.8947 11.0035 20.9011 11.0307C20.9074 11.0578 20.9122 11.0852 20.9154 11.1128C20.9186 11.1404 20.9202 11.1681 20.9202 11.1958V11.197C20.9202 11.2247 20.9186 11.2524 20.9154 11.2799C20.9122 11.3075 20.9074 11.3349 20.9011 11.3621C20.8947 11.3893 20.8868 11.4161 20.8773 11.4426C20.8679 11.4692 20.8569 11.4952 20.8444 11.5208C20.8319 11.5464 20.8179 11.5714 20.8025 11.5959C20.7871 11.6203 20.7704 11.6441 20.7523 11.6671C20.7341 11.6901 20.7147 11.7124 20.694 11.7338C20.6733 11.7552 20.6514 11.7757 20.6283 11.7953C20.6053 11.8149 20.5811 11.8335 20.5559 11.8511C20.5306 11.8687 20.5044 11.8852 20.4773 11.9006C20.4502 11.9159 20.4222 11.9302 20.3934 11.9432C20.3646 11.9563 20.3351 11.9682 20.305 11.9788C20.2748 11.9894 20.2441 11.9987 20.2129 12.0067C20.1816 12.0148 20.15 12.0215 20.118 12.0269C20.086 12.0323 20.0538 12.0363 20.0213 12.0391C19.9888 12.0418 19.9563 12.0431 19.9236 12.0431H6.71952C6.68688 12.0431 6.65432 12.0418 6.62183 12.0391C6.58935 12.0363 6.5571 12.0323 6.52508 12.0269C6.49307 12.0215 6.46144 12.0148 6.43021 12.0067C6.39897 11.9987 6.36828 11.9894 6.33812 11.9788C6.30796 11.9682 6.27849 11.9563 6.2497 11.9432C6.22091 11.9302 6.19295 11.9159 6.16581 11.9006C6.13867 11.8852 6.11248 11.8687 6.08725 11.8511C6.06202 11.8335 6.03786 11.8149 6.01478 11.7953C5.9917 11.7757 5.96981 11.7552 5.9491 11.7338C5.92839 11.7124 5.90897 11.6901 5.89084 11.6671C5.8727 11.6441 5.85594 11.6203 5.84056 11.5959C5.82517 11.5714 5.81123 11.5464 5.79874 11.5208C5.78625 11.4952 5.77526 11.4692 5.76579 11.4426C5.75631 11.4161 5.74839 11.3893 5.74202 11.3621C5.73565 11.3349 5.73087 11.3075 5.72767 11.2799C5.72447 11.2524 5.72287 11.2247 5.72287 11.197V11.1958C5.72287 11.1681 5.72447 11.1404 5.72767 11.1128C5.73087 11.0852 5.73565 11.0578 5.74202 11.0307C5.74839 11.0035 5.75631 10.9766 5.76579 10.9501C5.77526 10.9236 5.78625 10.8975 5.79874 10.8719C5.81123 10.8463 5.82517 10.8213 5.84056 10.7969C5.85594 10.7724 5.8727 10.7487 5.89084 10.7257C5.90897 10.7026 5.92839 10.6804 5.9491 10.6589C5.96981 10.6375 5.9917 10.617 6.01478 10.5974C6.03786 10.5779 6.06202 10.5593 6.08725 10.5416C6.11248 10.5241 6.13867 10.5076 6.16581 10.4922C6.19295 10.4768 6.22091 10.4626 6.2497 10.4495C6.27849 10.4364 6.30796 10.4246 6.33812 10.414C6.36828 10.4034 6.39897 10.3941 6.43021 10.386C6.46144 10.378 6.49307 10.3713 6.52508 10.3658C6.5571 10.3605 6.58935 10.3564 6.62183 10.3537C6.65432 10.351 6.68688 10.3496 6.71952 10.3496Z" fill="white"/>
<path fill-rule="evenodd" clip-rule="evenodd" d="M6.71952 15.9946H23.0815C23.1141 15.9946 23.1467 15.996 23.1791 15.9987C23.2116 16.0014 23.2439 16.0055 23.2759 16.0109C23.3079 16.0163 23.3396 16.023 23.3708 16.0311C23.402 16.0391 23.4327 16.0484 23.4629 16.059C23.493 16.0696 23.5225 16.0815 23.5513 16.0945C23.5801 16.1076 23.6081 16.1218 23.6352 16.1372C23.6624 16.1526 23.6885 16.1691 23.7137 16.1867C23.739 16.2042 23.7631 16.2228 23.7862 16.2424C23.8093 16.262 23.8312 16.2825 23.8519 16.304C23.8726 16.3254 23.892 16.3476 23.9102 16.3707C23.9283 16.3937 23.9451 16.4174 23.9604 16.4419C23.9758 16.4663 23.9898 16.4913 24.0023 16.5169C24.0148 16.5425 24.0257 16.5686 24.0352 16.5951C24.0447 16.6217 24.0526 16.6485 24.059 16.6757C24.0654 16.7029 24.0702 16.7302 24.0734 16.7578C24.0766 16.7854 24.0782 16.813 24.0782 16.8407V16.842C24.0782 16.8697 24.0766 16.8974 24.0734 16.925C24.0702 16.9526 24.0654 16.9799 24.059 17.0071C24.0526 17.0343 24.0447 17.0611 24.0352 17.0877C24.0257 17.1142 24.0148 17.1402 24.0023 17.1658C23.9898 17.1914 23.9758 17.2165 23.9604 17.2409C23.9451 17.2653 23.9283 17.2891 23.9102 17.3121C23.892 17.3352 23.8726 17.3574 23.8519 17.3788C23.8312 17.4002 23.8093 17.4207 23.7862 17.4403C23.7631 17.4599 23.739 17.4785 23.7137 17.4961C23.6885 17.5137 23.6624 17.5302 23.6352 17.5455C23.6081 17.5609 23.5801 17.5752 23.5513 17.5883C23.5225 17.6013 23.493 17.6132 23.4629 17.6237C23.4327 17.6343 23.402 17.6437 23.3708 17.6517C23.3396 17.6598 23.3079 17.6665 23.2759 17.6719C23.2439 17.6773 23.2116 17.6814 23.1791 17.6841C23.1467 17.6868 23.1141 17.6882 23.0815 17.6882H6.71952C6.68688 17.6882 6.65432 17.6868 6.62183 17.6841C6.58935 17.6814 6.5571 17.6773 6.52508 17.6719C6.49307 17.6665 6.46144 17.6598 6.43021 17.6517C6.39897 17.6437 6.36828 17.6343 6.33812 17.6237C6.30796 17.6132 6.27849 17.6013 6.2497 17.5883C6.22091 17.5752 6.19295 17.5609 6.16581 17.5455C6.13867 17.5302 6.11248 17.5137 6.08725 17.4961C6.06202 17.4785 6.03786 17.4599 6.01478 17.4403C5.9917 17.4207 5.96981 17.4002 5.9491 17.3788C5.92839 17.3574 5.90897 17.3352 5.89084 17.3121C5.8727 17.2891 5.85594 17.2653 5.84056 17.2409C5.82517 17.2165 5.81123 17.1914 5.79874 17.1658C5.78625 17.1402 5.77526 17.1142 5.76579 17.0877C5.75631 17.0611 5.74839 17.0343 5.74202 17.0071C5.73565 16.9799 5.73087 16.9526 5.72767 16.925C5.72447 16.8974 5.72287 16.8697 5.72287 16.842V16.8407C5.72287 16.813 5.72447 16.7854 5.72767 16.7578C5.73087 16.7302 5.73565 16.7029 5.74202 16.6757C5.74839 16.6485 5.75631 16.6217 5.76579 16.5951C5.77526 16.5686 5.78625 16.5425 5.79874 16.5169C5.81123 16.4913 5.82517 16.4663 5.84056 16.4419C5.85594 16.4174 5.8727 16.3937 5.89084 16.3707C5.90897 16.3476 5.92839 16.3254 5.9491 16.304C5.96981 16.2825 5.9917 16.262 6.01478 16.2424C6.03786 16.2228 6.06202 16.2042 6.08725 16.1867C6.11248 16.1691 6.13867 16.1526 6.16581 16.1372C6.19295 16.1218 6.22091 16.1076 6.2497 16.0945C6.27849 16.0815 6.30796 16.0696 6.33812 16.059C6.36828 16.0484 6.39897 16.0391 6.43021 16.0311C6.46144 16.023 6.49307 16.0163 6.52508 16.0109C6.5571 16.0055 6.58935 16.0014 6.62183 15.9987C6.65432 15.996 6.68688 15.9946 6.71952 15.9946Z" fill="white"/>
<path fill-rule="evenodd" clip-rule="evenodd" d="M6.71952 27.0969H23.0815C23.1141 27.0969 23.1467 27.0983 23.1791 27.101C23.2116 27.1037 23.2439 27.1078 23.2759 27.1132C23.3079 27.1186 23.3396 27.1253 23.3708 27.1333C23.402 27.1414 23.4327 27.1507 23.4629 27.1613C23.493 27.1719 23.5225 27.1838 23.5513 27.1968C23.5801 27.2099 23.6081 27.2241 23.6352 27.2395C23.6624 27.2549 23.6885 27.2714 23.7137 27.289C23.739 27.3065 23.7631 27.3251 23.7862 27.3447C23.8093 27.3643 23.8312 27.3848 23.8519 27.4063C23.8726 27.4277 23.892 27.4499 23.9102 27.473C23.9283 27.496 23.9451 27.5197 23.9604 27.5442C23.9758 27.5686 23.9898 27.5936 24.0023 27.6192C24.0148 27.6448 24.0257 27.6709 24.0352 27.6974C24.0447 27.724 24.0526 27.7508 24.059 27.778C24.0654 27.8051 24.0702 27.8325 24.0734 27.8601C24.0766 27.8877 24.0782 27.9153 24.0782 27.943V27.9443C24.0782 27.972 24.0766 27.9997 24.0734 28.0273C24.0702 28.0549 24.0654 28.0822 24.059 28.1094C24.0526 28.1366 24.0447 28.1634 24.0352 28.1899C24.0257 28.2165 24.0148 28.2425 24.0023 28.2681C23.9898 28.2937 23.9758 28.3188 23.9604 28.3432C23.9451 28.3676 23.9283 28.3914 23.9102 28.4144C23.892 28.4375 23.8726 28.4597 23.8519 28.4811C23.8312 28.5025 23.8093 28.523 23.7862 28.5426C23.7631 28.5622 23.739 28.5808 23.7137 28.5984C23.6885 28.616 23.6623 28.6325 23.6352 28.6478C23.6081 28.6632 23.5801 28.6775 23.5513 28.6905C23.5225 28.7036 23.493 28.7154 23.4629 28.726C23.4327 28.7366 23.402 28.746 23.3708 28.754C23.3396 28.7621 23.3079 28.7688 23.2759 28.7742C23.2439 28.7796 23.2116 28.7837 23.1791 28.7864C23.1467 28.7891 23.1141 28.7905 23.0815 28.7905H6.71952C6.68688 28.7905 6.65432 28.7891 6.62183 28.7864C6.58935 28.7837 6.5571 28.7796 6.52508 28.7742C6.49307 28.7688 6.46145 28.7621 6.43021 28.754C6.39897 28.746 6.36828 28.7366 6.33812 28.726C6.30796 28.7154 6.27849 28.7036 6.2497 28.6905C6.22092 28.6775 6.19295 28.6632 6.16581 28.6478C6.13867 28.6325 6.11248 28.616 6.08725 28.5984C6.06202 28.5808 6.03786 28.5622 6.01478 28.5426C5.9917 28.523 5.96981 28.5025 5.9491 28.4811C5.92839 28.4597 5.90897 28.4375 5.89084 28.4144C5.8727 28.3914 5.85594 28.3676 5.84056 28.3432C5.82517 28.3188 5.81123 28.2937 5.79874 28.2681C5.78625 28.2425 5.77526 28.2165 5.76579 28.1899C5.75631 28.1634 5.74839 28.1366 5.74202 28.1094C5.73565 28.0822 5.73087 28.0549 5.72767 28.0273C5.72447 27.9997 5.72287 27.972 5.72287 27.9443V27.943C5.72287 27.9153 5.72447 27.8877 5.72767 27.8601C5.73087 27.8325 5.73565 27.8051 5.74202 27.778C5.74839 27.7508 5.75631 27.724 5.76579 27.6974C5.77526 27.6709 5.78625 27.6448 5.79874 27.6192C5.81123 27.5936 5.82517 27.5686 5.84056 27.5442C5.85594 27.5197 5.8727 27.496 5.89084 27.473C5.90897 27.4499 5.92839 27.4277 5.9491 27.4063C5.96981 27.3848 5.9917 27.3643 6.01478 27.3447C6.03786 27.3251 6.06202 27.3065 6.08725 27.289C6.11248 27.2714 6.13867 27.2549 6.16581 27.2395C6.19295 27.2241 6.22091 27.2099 6.2497 27.1968C6.27849 27.1838 6.30796 27.1719 6.33812 27.1613C6.36828 27.1507 6.39897 27.1414 6.43021 27.1333C6.46145 27.1253 6.49307 27.1186 6.52508 27.1132C6.5571 27.1078 6.58935 27.1037 6.62183 27.101C6.65432 27.0983 6.68688 27.0969 6.71952 27.0969Z" fill="white"/>
<path fill-rule="evenodd" clip-rule="evenodd" d="M6.71952 21.4517H19.9236C19.9563 21.4517 19.9888 21.453 20.0213 21.4557C20.0538 21.4585 20.086 21.4625 20.118 21.4679C20.15 21.4733 20.1816 21.4801 20.2129 21.4881C20.2441 21.4961 20.2748 21.5055 20.305 21.516C20.3351 21.5266 20.3646 21.5385 20.3934 21.5516C20.4222 21.5646 20.4502 21.5789 20.4773 21.5942C20.5044 21.6096 20.5306 21.6261 20.5559 21.6437C20.5811 21.6613 20.6053 21.6799 20.6283 21.6995C20.6514 21.7191 20.6733 21.7396 20.694 21.761C20.7147 21.7824 20.7341 21.8047 20.7523 21.8277C20.7704 21.8508 20.7871 21.8745 20.8025 21.8989C20.8179 21.9234 20.8319 21.9484 20.8444 21.974C20.8569 21.9996 20.8679 22.0256 20.8773 22.0522C20.8868 22.0787 20.8947 22.1055 20.9011 22.1327C20.9074 22.1599 20.9122 22.1873 20.9154 22.2149C20.9186 22.2424 20.9202 22.2701 20.9202 22.2978V22.2991C20.9202 22.3268 20.9186 22.3544 20.9154 22.382C20.9122 22.4096 20.9074 22.437 20.9011 22.4641C20.8947 22.4913 20.8868 22.5182 20.8773 22.5447C20.8679 22.5712 20.8569 22.5973 20.8444 22.6229C20.8319 22.6485 20.8179 22.6735 20.8025 22.6979C20.7871 22.7224 20.7704 22.7461 20.7523 22.7691C20.7341 22.7922 20.7147 22.8144 20.694 22.8359C20.6733 22.8573 20.6514 22.8778 20.6283 22.8974C20.6053 22.917 20.5811 22.9356 20.5559 22.9532C20.5306 22.9707 20.5044 22.9872 20.4773 23.0026C20.4502 23.018 20.4222 23.0322 20.3934 23.0453C20.3646 23.0584 20.3351 23.0702 20.305 23.0808C20.2748 23.0914 20.2441 23.1007 20.2129 23.1088C20.1816 23.1168 20.15 23.1236 20.118 23.129C20.086 23.1343 20.0538 23.1384 20.0213 23.1411C19.9888 23.1438 19.9563 23.1452 19.9236 23.1452H6.71952C6.68688 23.1452 6.65432 23.1438 6.62183 23.1411C6.58935 23.1384 6.5571 23.1343 6.52508 23.129C6.49307 23.1236 6.46144 23.1168 6.43021 23.1088C6.39897 23.1007 6.36828 23.0914 6.33812 23.0808C6.30796 23.0702 6.27849 23.0584 6.2497 23.0453C6.22091 23.0322 6.19295 23.018 6.16581 23.0026C6.13867 22.9872 6.11248 22.9707 6.08725 22.9532C6.06202 22.9356 6.03786 22.917 6.01478 22.8974C5.9917 22.8778 5.96981 22.8573 5.9491 22.8359C5.92839 22.8144 5.90897 22.7922 5.89084 22.7691C5.8727 22.7461 5.85594 22.7224 5.84056 22.6979C5.82517 22.6735 5.81123 22.6485 5.79874 22.6229C5.78625 22.5973 5.77526 22.5712 5.76579 22.5447C5.75631 22.5182 5.74839 22.4913 5.74202 22.4641C5.73565 22.437 5.73087 22.4096 5.72767 22.382C5.72447 22.3544 5.72287 22.3268 5.72287 22.2991V22.2978C5.72287 22.2701 5.72447 22.2424 5.72767 22.2149C5.73087 22.1873 5.73565 22.1599 5.74202 22.1327C5.74839 22.1055 5.75631 22.0787 5.76579 22.0522C5.77526 22.0256 5.78625 21.9996 5.79874 21.974C5.81123 21.9484 5.82517 21.9234 5.84056 21.8989C5.85594 21.8745 5.8727 21.8508 5.89084 21.8277C5.90897 21.8047 5.92839 21.7824 5.9491 21.761C5.96981 21.7396 5.9917 21.7191 6.01478 21.6995C6.03786 21.6799 6.06202 21.6613 6.08725 21.6437C6.11248 21.6261 6.13867 21.6096 6.16581 21.5942C6.19295 21.5789 6.22091 21.5646 6.2497 21.5516C6.27849 21.5385 6.30796 21.5266 6.33812 21.516C6.36828 21.5055 6.39897 21.4961 6.43021 21.4881C6.46144 21.4801 6.49307 21.4733 6.52508 21.4679C6.5571 21.4625 6.58935 21.4585 6.62183 21.4557C6.65432 21.453 6.68688 21.4517 6.71952 21.4517Z" fill="white"/>
</svg>
